<mxfile host="app.diagrams.net" modified="2023-06-21T01:35:12.665Z" agent="Mozilla/5.0 (Windows NT 10.0; Win64; x64) AppleWebKit/537.36 (KHTML, like Gecko) Chrome/113.0.0.0 Safari/537.36" version="21.5.0" etag="qfjeTmSB4g8PchcF_hui" type="github">
  <diagram name="第 1 页" id="ZmaBu6uPVY7NbaPD1Ba3">
    <mxGraphModel>
      <root>
        <mxCell id="0" />
        <mxCell id="1" parent="0" />
      </root>
    </mxGraphModel>
  </diagram>
</mxfile>
